<?xml version="1.0" encoding="utf-8"?>
<!-- Generator: Adobe Illustrator 27.5.0, SVG Export Plug-In . SVG Version: 6.00 Build 0)  -->
<svg version="1.1" xmlns="http://www.w3.org/2000/svg" xmlns:xlink="http://www.w3.org/1999/xlink" x="0px" y="0px"
	 viewBox="0 0 3710 3710" style="enable-background:new 0 0 3710 3710;" xml:space="preserve">
<g id="Background">
	<g>
		<g>
			<rect style="fill:#FFFFFF;" width="3710" height="3710"/>
		</g>
	</g>
</g>
<g id="Illustration">
	<g>
		<path style="fill:#F4F7FA;" d="M3256.411,1578.992c-73.109-478.533-372.856-1066.446-965.039-1127.971
			c0,0-449.613-54.689-892.833,28.198c-263.052,49.193-493.709,195.629-639.659,406.095
			c-145.952,210.466-194.705,467.1-135.537,711.769c38.429,158.915,64.397,323.385,57.27,486.68
			c-12.403,284.198-5.267,549.477,270.541,718.965c246.265,151.334,556.193,284.805,851.868,308.183
			c200.939,15.887,426.28-9.822,619.947-62.136C3409.94,2782.161,3329.521,2057.525,3256.411,1578.992z"/>
		<g>
			<defs>
				<rect id="SVGID_1_" x="466.162" y="577.056" width="1542.577" height="2346.152"/>
			</defs>
			<clipPath id="SVGID_00000074407700120445569380000013304758924976135303_">
				<use xlink:href="#SVGID_1_"  style="overflow:visible;"/>
			</clipPath>
			<g style="clip-path:url(#SVGID_00000074407700120445569380000013304758924976135303_);">
				<g>
					<g>
						<defs>
							<path id="SVGID_00000083795459576177682860000005017706672014118043_" d="M1317.131,3366.529
								c94.735-346.368-150.039-455.09-248.551-520.299c-148.564-98.34-251.767-267.005-86.972-392.062
								c164.795-125.058-91.41-454.808-346.131-569.861c-249.262-112.587-274.713-745.61,278.018-565.437
								c330.09,107.599,366.943,535.883,424.483,750.337c57.539,214.454,303.686,172.774,273.638,459.453
								c-25.667,244.876-63.859,543.917,70.064,674.957C1815.602,3334.659,1270.7,3536.292,1317.131,3366.529z"/>
						</defs>
						<clipPath id="SVGID_00000031166380138937420820000008506278716412072335_">
							<use xlink:href="#SVGID_00000083795459576177682860000005017706672014118043_"  style="overflow:visible;"/>
						</clipPath>
						
							<linearGradient id="SVGID_00000112604470922061070760000007295838308680637856_" gradientUnits="userSpaceOnUse" x1="20.3841" y1="2196.0984" x2="-787.9412" y2="4493.4458" gradientTransform="matrix(-0.9768 0.214 0.214 0.9768 119.1026 -725.1759)">
							<stop  offset="0" style="stop-color:#AA80F9"/>
							<stop  offset="0.9964" style="stop-color:#6165D7"/>
						</linearGradient>
						
							<path style="clip-path:url(#SVGID_00000031166380138937420820000008506278716412072335_);fill:url(#SVGID_00000112604470922061070760000007295838308680637856_);" d="
							M635.479,1884.308c254.719,115.052,466.79,403.388,323.729,566.545c-126.442,144.203-39.191,297.037,109.371,395.377
							c73.942,48.944,230.272,122.405,263.606,302.458c10.886-3.81-50.128,307.866-38.198,308.746
							c53.207,3.927,145.787-58.191,160.571,7.747l277.898-179.979c-20.587-68.971-60.231-128.703-114.322-181.631
							c-133.922-131.04-32.185-330.033-6.517-574.912c30.047-286.678-216.101-244.999-273.639-459.453
							c-57.538-214.453-94.392-642.737-424.484-750.337C360.763,1138.698,386.213,1771.721,635.479,1884.308z"/>
						<path style="clip-path:url(#SVGID_00000031166380138937420820000008506278716412072335_);fill:#BEB8F2;" d="M941.262,1782.172
							c-251.82-115.581-434.663,19.186-436.526,20.601l3.737,7.84c1.875-1.419,189.762-139.733,446.465-12.642
							c189.618,223.202,316.685,538.617,399.615,822.897c32.421,111.134,59.685,222.472,82.58,329.458
							c-168.314-368.192-592.916-368.241-596.939-367.253l1.555,8.837c4.279-0.496,446.207-2.676,602.724,393.274
							c20.66,99.761,37.519,195.224,51.188,282.539l6.923,0.511c-13.788-88.233-30.828-184.807-51.751-285.763l0.011-0.006
							c-0.008-0.019-0.017-0.038-0.024-0.057c-11.722-56.552-24.661-114.472-38.941-173.086
							c-11.187-272.625,166.475-506.466,168.275-508.8l-4.976-6.603c-1.755,2.274-168.906,222.242-170.588,485.937
							c-13.401-53.517-27.91-107.499-43.641-161.437c-78.362-268.659-173.537-492.406-283.608-667.241l0.696-0.053
							c-30.93-299.124-196.632-693.27-198.302-697.219l-5.896,3.874c1.639,3.877,162.245,385.92,196.111,681.729
							c-20.219-31.522-40.925-61.436-62.123-89.662c-175.128-233.182-383.896-353.055-620.495-356.279l0.46,8.949
							C613.68,1505.598,795.504,1616.644,941.262,1782.172z M1672.877,3148.345c-16.213,24.823-46.657,71.466-75.401,126.894
							l8.209,0.606c27.818-52.913,56.864-97.423,72.511-121.377c7.424-11.37,10.471-16.069,11.322-18.187l-6.086-4.639
							C1682.815,3133.13,1678.21,3140.178,1672.877,3148.345z"/>
					</g>
				</g>
				<g>
					
						<linearGradient id="SVGID_00000125565546038046319750000007068601852185814204_" gradientUnits="userSpaceOnUse" x1="3792.7683" y1="1523.2513" x2="3331.9187" y2="3530.3708" gradientTransform="matrix(0.9632 -0.2688 0.2688 0.9632 -2936.6516 486.293)">
						<stop  offset="0.0036" style="stop-color:#E38DDD"/>
						<stop  offset="1" style="stop-color:#9571F6"/>
					</linearGradient>
					<path style="fill:url(#SVGID_00000125565546038046319750000007068601852185814204_);" d="M1043.747,2263.48
						c13.539-19.466-2.835,51.879,20.475,45.371c47.918-13.376,36.203,37.208,160.07-29.792l369.674-103.197
						c-58.18-103.854-175.929-193.154-221.836-244.145c-96.877-107.603-128.466-158.126-71.972-452.195
						c121.451-393.865,54.896-715.556-116.369-770.55c-173.53-55.722-288.75,99.605-294.048,288.267
						c-3.391,120.707-131.824,81.524-156.494,241.817c-21.652,140.695,144.895,308.697,215.93,409.37
						C1134.718,1911.382,1041.5,2087.756,1043.747,2263.48z"/>
					<g>
						<defs>
							<path id="SVGID_00000020367150007716798540000005924688996557020597_" d="M1133.772,2502.074
								c-228.117-276.015,82.486-475.131-184.596-853.646c-71.035-100.673-237.582-268.675-215.928-409.371
								c24.669-160.292,153.104-121.11,156.494-241.817c5.298-188.661,120.52-343.989,294.047-288.267
								c171.264,54.995,237.821,376.686,116.371,770.55c-56.493,294.069-24.907,344.593,71.97,452.195
								c67.857,75.37,292.865,234.396,250.078,400.488C1579.421,2498.298,1217.847,2603.802,1133.772,2502.074z"/>
						</defs>
						<clipPath id="SVGID_00000109724426315647035850000010639194934191889541_">
							<use xlink:href="#SVGID_00000020367150007716798540000005924688996557020597_"  style="overflow:visible;"/>
						</clipPath>
						<path style="clip-path:url(#SVGID_00000109724426315647035850000010639194934191889541_);fill:#FCFDFE;" d="M1170.459,1779.51
							c24.05,134.241,56.024,269.837,95.784,405.458c7.406,25.265,15.185,50.58,23.149,75.918l6.271-1.751
							c-7.976-25.368-15.763-50.713-23.177-76.007c-66.282-226.102-111.066-452.146-133.106-671.853
							c-4.948-49.328-8.719-98.4-11.399-147.137c20.788-149.601,260.044-330.173,262.461-331.982l-3.896-5.688
							c-9.433,7.058-219.553,165.683-259.886,311.894c-5.476-116.882-4.416-231.653,3.27-342.829
							c8.048-116.358,23.178-227.608,44.98-330.663c3.77-17.834,8.602-35.91,13.273-53.391
							c6.298-23.567,12.813-47.934,16.904-72.302l-6.44-1.43c-4.037,24.038-10.508,48.242-16.764,71.648
							c-4.698,17.569-9.551,35.734-13.361,53.752c-21.868,103.379-37.042,214.964-45.113,331.65
							c-1.425,20.594-2.603,41.32-3.573,62.151c-0.035,0.752-1.088,0.829-1.222,0.088
							c-27.727-152.378-82.319-300.225-101.193-351.339c-3.561-9.637-6.371-17.249-6.642-18.57l-6.409,1.151
							c0.333,1.734,2.049,6.427,6.966,19.742c20.312,55.006,82.123,222.399,106.9,386.306l0.102-0.014
							c-2.957,88.074-1.917,178.05,3.072,269.24c-0.009,0.065-0.021,0.13-0.03,0.195l0.041,0.008
							c2.686,49.028,6.476,98.394,11.454,148.017c6.768,67.46,15.698,135.52,26.707,203.99
							c-93.472-277.87-413.831-572.972-417.303-576.145l-4.181,5.166c3.718,3.393,372.35,342.935,432.201,634.756L1170.459,1779.51z
							 M1529.907,2055.711c-0.839,1.479-38.162,68.106-73.721,158.614l7.955-2.22c34.77-87.374,70.59-151.252,71.411-152.697
							L1529.907,2055.711z"/>
					</g>
				</g>
			</g>
		</g>
		<g>
			<g>
				<g>
					<defs>
						<path id="SVGID_00000064323303471592334150000007028564256475357062_" d="M2528.755,2652.864
							c-96.87-345.777,147.229-456.007,245.336-521.822c147.954-99.254,250.115-268.553,84.552-392.591
							c-165.563-124.039,88.602-455.364,342.608-571.985c248.563-114.123,270.108-747.291-281.502-563.711
							c-329.42,109.634-363.63,538.137-419.845,752.941c-56.215,214.805-302.615,174.644-270.798,461.133
							c27.177,244.713,67.213,543.513-65.898,675.377S2576.233,2822.337,2528.755,2652.864z"/>
					</defs>
					<clipPath id="SVGID_00000053504563653928786840000016017514570486784178_">
						<use xlink:href="#SVGID_00000064323303471592334150000007028564256475357062_"  style="overflow:visible;"/>
					</clipPath>
					
						<linearGradient id="SVGID_00000060710038636767635330000002788788924234777511_" gradientUnits="userSpaceOnUse" x1="2804.4653" y1="990.8052" x2="1996.1481" y2="3288.1301" gradientTransform="matrix(0.9781 0.208 -0.208 0.9781 727.8047 -846.3222)">
						<stop  offset="0" style="stop-color:#AA80F9"/>
						<stop  offset="0.9964" style="stop-color:#6165D7"/>
					</linearGradient>
					
						<path style="clip-path:url(#SVGID_00000053504563653928786840000016017514570486784178_);fill:url(#SVGID_00000060710038636767635330000002788788924234777511_);" d="
						M3201.25,1166.465c-254.004,116.621-464.293,406.26-320.228,568.531c127.33,143.42,41.023,296.79-106.929,396.045
						c-73.639,49.399-229.512,123.823-261.735,304.078c-10.909-3.743,52.027,307.551,40.103,308.505
						c-53.182,4.256-146.144-57.291-160.52,8.738l-279.003-178.261c20.161-69.097,59.436-129.073,113.199-182.333
						c133.111-131.864,30.148-330.226,2.97-574.941c-31.815-286.487,214.585-246.328,270.799-461.132
						c56.214-214.804,90.424-643.307,419.847-752.942C3471.36,419.174,3449.817,1052.343,3201.25,1166.465z"/>
					<path style="clip-path:url(#SVGID_00000053504563653928786840000016017514570486784178_);fill:#BEB8F2;" d="M3446.58,783.153
						l0.405-8.952c-236.575,4.684-444.6,125.842-618.286,360.1c-21.023,28.357-41.544,58.397-61.568,90.044
						c32.04-296.012,190.286-679.038,191.901-682.926l-5.92-3.838c-1.645,3.96-164.913,399.12-193.997,698.429l0.696,0.049
						c-108.99,175.511-202.783,399.841-279.486,668.978c-15.399,54.034-29.574,108.104-42.645,161.703
						c-3.309-263.679-171.814-482.612-173.583-484.875l-4.935,6.634c1.813,2.323,180.916,235.064,171.41,507.752
						c-13.918,58.701-26.499,116.7-37.872,173.323c-0.008,0.019-0.017,0.038-0.024,0.057l0.011,0.006
						c-20.301,101.083-36.744,197.76-49.988,286.077l6.919-0.554c13.131-87.398,29.4-182.963,49.444-282.85
						c154.071-396.909,596.004-397.455,600.286-396.985l1.5-8.847c-4.029-0.963-428.622,1.706-594.661,370.929
						c22.234-107.125,48.811-218.629,80.545-329.961c81.174-284.787,206.293-600.979,394.53-825.347
						c255.914-128.672,444.651,8.48,446.535,9.887l3.688-7.863c-1.872-1.404-185.543-135.04-436.645-17.907
						C3039.576,899.794,3220.712,787.628,3446.58,783.153z M2161.012,2420.24l-6.057,4.677c0.864,2.113,3.94,6.793,11.434,18.117
						c15.795,23.858,45.115,68.188,73.259,120.928l8.205-0.656c-29.085-55.249-59.816-101.703-76.182-126.426
						C2166.287,2428.744,2161.639,2421.725,2161.012,2420.24z"/>
				</g>
			</g>
			<g>
				
					<linearGradient id="SVGID_00000108310270695391820450000004238642638626309026_" gradientUnits="userSpaceOnUse" x1="1240.3114" y1="580.2819" x2="779.4506" y2="2587.4502" gradientTransform="matrix(-0.9648 -0.2629 -0.2629 0.9648 3791.1309 345.5324)">
					<stop  offset="0.0036" style="stop-color:#E38DDD"/>
					<stop  offset="1" style="stop-color:#9571F6"/>
				</linearGradient>
				<path style="fill:url(#SVGID_00000108310270695391820450000004238642638626309026_);" d="M2532.325,1908.265
					c-13.659-19.382,3.156,51.86-20.195,45.497c-48-13.081-35.972,37.431-160.25-28.803l-370.304-100.914
					c57.538-104.21,174.734-194.235,220.325-245.509c96.211-108.199,127.488-158.915,69.181-452.63
					c-123.879-393.108-59.309-715.203,111.613-771.253c173.183-56.792,289.359,97.822,295.822,286.447
					c4.135,120.684,132.325,80.709,157.983,240.847c22.519,140.559-142.988,309.585-213.4,410.694
					C2439.183,1556.734,2533.487,1732.53,2532.325,1908.265z"/>
				<g>
					<defs>
						<path id="SVGID_00000181769373161451200750000004084889104895044798_" d="M2443.773,2147.409
							c226.41-277.417-85.416-474.613,179.326-854.768c70.413-101.11,235.919-270.136,213.398-410.695
							c-25.658-160.137-153.848-120.163-157.983-240.847c-6.462-188.625-122.64-343.239-295.82-286.447
							c-170.922,56.051-235.492,378.146-111.615,771.253c58.307,293.715,27.032,344.433-69.179,452.631
							c-67.391,75.787-291.413,236.199-247.603,402.023C1998.109,2146.383,2360.327,2249.654,2443.773,2147.409z"/>
					</defs>
					<clipPath id="SVGID_00000054229998434605379370000009329590020648786561_">
						<use xlink:href="#SVGID_00000181769373161451200750000004084889104895044798_"  style="overflow:visible;"/>
					</clipPath>
					<path style="clip-path:url(#SVGID_00000054229998434605379370000009329590020648786561_);fill:#FCFDFE;" d="M2402.789,1425.116
						c58.05-292.184,424.58-633.994,428.277-637.41l-4.213-5.14c-3.452,3.194-321.984,300.268-413.74,578.708
						c10.587-68.536,19.097-136.65,25.448-204.151c4.672-49.653,8.157-99.041,10.541-148.085l0.041-0.008
						c-0.009-0.065-0.022-0.13-0.031-0.195c4.426-91.219,4.911-181.2,1.411-269.254l0.102,0.013
						c23.765-164.056,84.542-331.827,104.515-386.958c4.834-13.346,6.521-18.048,6.844-19.785l-6.416-1.111
						c-0.263,1.323-3.026,8.952-6.527,18.61c-18.558,51.23-72.237,199.411-99.023,351.957c-0.13,0.742-1.183,0.672-1.223-0.08
						c-1.098-20.825-2.405-41.543-3.957-62.128c-8.791-116.635-24.653-228.123-47.159-331.365
						c-3.921-17.994-8.886-36.129-13.692-53.669c-6.4-23.368-13.02-47.531-17.205-71.544l-6.431,1.47
						c4.241,24.341,10.906,48.668,17.349,72.196c4.779,17.452,9.722,35.498,13.602,53.308
						c22.437,102.918,38.253,214.073,47.019,330.379c8.372,111.127,10.14,225.889,5.385,342.802
						c-41.234-145.96-252.329-303.285-261.805-310.285l-3.861,5.712c2.427,1.794,242.793,180.887,264.504,330.357
						c-2.378,48.752-5.847,97.847-10.491,147.205c-20.685,219.838-64.073,446.154-128.958,672.661
						c-7.258,25.339-14.888,50.731-22.708,76.148l6.282,1.712c7.808-25.386,15.43-50.749,22.68-76.059
						c38.922-135.865,70.059-271.655,93.28-406.042L2402.789,1425.116z M2039.27,1707.23c0.83,1.44,37.043,65.096,72.352,152.253
						l7.968,2.172c-36.117-90.287-73.85-156.682-74.698-158.156L2039.27,1707.23z"/>
				</g>
			</g>
		</g>
		<g>
			<g>
				
					<linearGradient id="SVGID_00000075158197834176570590000014395912963424959886_" gradientUnits="userSpaceOnUse" x1="1883.0741" y1="2363.0864" x2="1709.3202" y2="6132.9614">
					<stop  offset="0.0036" style="stop-color:#26264F"/>
					<stop  offset="1" style="stop-color:#444B8C"/>
				</linearGradient>
				<path style="fill:url(#SVGID_00000075158197834176570590000014395912963424959886_);" d="M2909.28,627.191
					c0.154-37.727-30.539-69.035-68.684-69.927L1007.97,514.415c-45.555-1.065-82.622,31.672-82.622,73.117V3028.22
					c0,41.024,36.87,70.822,82.184,66.578l1823.744-170.795c37.978-3.557,68.783-36.726,68.936-74.103L2909.28,627.191z"/>
				<g>
					
						<linearGradient id="SVGID_00000025400846580820262990000012925806233592424084_" gradientUnits="userSpaceOnUse" x1="2058.166" y1="272.9455" x2="1884.4121" y2="4042.8206">
						<stop  offset="0" style="stop-color:#444B8C"/>
						<stop  offset="0.9964" style="stop-color:#26264F"/>
					</linearGradient>
					<path style="fill:url(#SVGID_00000025400846580820262990000012925806233592424084_);" d="M2988.203,623.604
						c0.154-37.727-30.539-69.035-68.684-69.927l-1832.626-42.849c-45.554-1.065-82.622,31.672-82.622,73.117v2440.687
						c0,41.024,36.871,70.822,82.184,66.578l1823.744-170.795c37.977-3.557,68.783-36.726,68.936-74.103L2988.203,623.604z"/>
					
						<linearGradient id="SVGID_00000154406837908159667530000001539529625092358544_" gradientUnits="userSpaceOnUse" x1="2058.9604" y1="498.8289" x2="1911.5245" y2="3697.6914">
						<stop  offset="0.494" style="stop-color:#EBEFF2"/>
						<stop  offset="1" style="stop-color:#FFFFFF"/>
					</linearGradient>
					<path style="fill:url(#SVGID_00000154406837908159667530000001539529625092358544_);" d="M2904.71,777.399l-7.528,1925.508
						c-0.078,19.865-16.468,37.319-36.681,39.029l-1710.487,144.738c-23.818,2.015-43.125-13.84-43.12-35.455l0.444-2095.939
						c0.002-11.906,5.803-22.516,14.99-29.598c7.607-5.915,17.487-9.395,28.339-9.242l1717.507,24.211
						C2888.464,740.939,2904.789,757.374,2904.71,777.399z"/>
					<path style="opacity:0.9;fill:#FFFFFF;" d="M2829.405,2744.568l-1678.099,141.998c-23.815,2.015-44.416-13.73-44.411-35.345
						l0.444-2095.939c0.002-11.906,6.453-22.507,15.64-29.589c5.513,12.437,11.779,24.697,18.189,36.7
						c188.824,353.466,565.947,117.485,814.38,465.757c194.285,272.353,43.381,533.212,262.61,835.283
						c173.164,238.532,328.297,154.403,485.899,383.968C2764.713,2535.754,2804.104,2639.141,2829.405,2744.568z"/>
					
						<linearGradient id="SVGID_00000176744866366536566400000002286190714239339410_" gradientUnits="userSpaceOnUse" x1="2048.9729" y1="2642.1973" x2="1939.6021" y2="5426.2432">
						<stop  offset="0" style="stop-color:#444B8C"/>
						<stop  offset="0.9964" style="stop-color:#26264F"/>
					</linearGradient>
					<path style="fill:url(#SVGID_00000176744866366536566400000002286190714239339410_);" d="M2161.457,2885.682
						c-0.022,9.344-8.014,17.632-17.858,18.513l-208.921,18.69c-10.051,0.899-18.191-6.034-18.173-15.487l0,0
						c0.018-9.453,8.187-17.833,18.239-18.716l208.935-18.354C2153.523,2869.463,2161.479,2876.338,2161.457,2885.682
						L2161.457,2885.682z"/>
					
						<linearGradient id="SVGID_00000023246369890735347990000010999695040392108943_" gradientUnits="userSpaceOnUse" x1="2055.1116" y1="351.1754" x2="1932.0465" y2="3483.811">
						<stop  offset="0.494" style="stop-color:#EBEFF2"/>
						<stop  offset="1" style="stop-color:#FFFFFF"/>
					</linearGradient>
					<path style="fill:url(#SVGID_00000023246369890735347990000010999695040392108943_);" d="M2080.049,638.104
						c-0.042,18.94-16.231,34.021-36.194,33.685c-20.001-0.336-36.211-16.015-36.172-35.02
						c0.039-19.006,16.315-34.089,36.319-33.688C2063.967,603.483,2080.091,619.163,2080.049,638.104z"/>
				</g>
				<g>
					<defs>
						<path id="SVGID_00000084532259086999652480000012371684126325649852_" d="M2904.71,777.399l-7.528,1925.508
							c-0.078,19.865-16.468,37.319-36.681,39.029l-1710.487,144.738c-23.818,2.015-43.125-13.84-43.12-35.455l0.444-2095.939
							c0.002-11.906,5.803-22.516,14.99-29.598c7.607-5.915,17.487-9.395,28.339-9.242l1717.507,24.211
							C2888.464,740.939,2904.789,757.374,2904.71,777.399z"/>
					</defs>
					<clipPath id="SVGID_00000011716046167662808650000017842089860294346149_">
						<use xlink:href="#SVGID_00000084532259086999652480000012371684126325649852_"  style="overflow:visible;"/>
					</clipPath>
					<g style="opacity:0.5;clip-path:url(#SVGID_00000011716046167662808650000017842089860294346149_);">
						<polygon style="fill:#FFFFFF;" points="2152.81,2022.405 1874.523,2035.337 1874.579,2004.364 2152.884,1991.836 						"/>
						<polygon style="fill:#FFFFFF;" points="2151.027,2768.428 1873.149,2791.225 1873.205,2760.348 2151.1,2737.954 						"/>
					</g>
					<g style="clip-path:url(#SVGID_00000011716046167662808650000017842089860294346149_);">
						<g>
							<g>
								
									<linearGradient id="SVGID_00000108301566885998812610000005778400525257153191_" gradientUnits="userSpaceOnUse" x1="1667.8245" y1="1298.0258" x2="1876.7229" y2="1298.0258">
									<stop  offset="0" style="stop-color:#FF9085"/>
									<stop  offset="1" style="stop-color:#FB6FBB"/>
								</linearGradient>
								<polygon style="fill:url(#SVGID_00000108301566885998812610000005778400525257153191_);" points="1875.011,1766.773 
									1667.824,1773.782 1669.147,822.269 1876.723,824.452 								"/>
								<polygon style="fill:#FFFFFF;" points="1809.155,1589.246 1731.421,1591.22 1732.313,1003.928 1810.138,1004.088 								
									"/>
							</g>
							
								<linearGradient id="SVGID_00000168103956650847001330000001725191377526788001_" gradientUnits="userSpaceOnUse" x1="1561.4705" y1="1299.825" x2="1669.0646" y2="1299.825">
								<stop  offset="0" style="stop-color:#FF9085"/>
								<stop  offset="1" style="stop-color:#FB6FBB"/>
							</linearGradient>
							<polygon style="fill:url(#SVGID_00000168103956650847001330000001725191377526788001_);" points="1669.065,822.269 
								1561.47,878.567 1561.47,1777.38 1667.824,1773.782 							"/>
						</g>
						<g>
							
								<linearGradient id="SVGID_00000072281699265969405830000014725671997357409161_" gradientUnits="userSpaceOnUse" x1="1555.1208" y1="277.5856" x2="1470.4467" y2="2584.908">
								<stop  offset="0" style="stop-color:#AA80F9"/>
								<stop  offset="0.9964" style="stop-color:#6165D7"/>
							</linearGradient>
							<polygon style="fill:url(#SVGID_00000072281699265969405830000014725671997357409161_);" points="1667.824,1773.782 
								1364.737,1784.036 1365.429,879.278 1669.065,881.63 							"/>
							<g>
								<g style="opacity:0.9;">
									<polygon style="fill:#FFFFFF;" points="1668.924,982.859 1365.35,981.939 1365.375,950.083 1668.968,951.448 									"/>
									<polygon style="fill:#FFFFFF;" points="1668.851,1035.202 1365.31,1035.023 1365.334,1003.174 1668.895,1003.798 									
										"/>
								</g>
								<g style="opacity:0.9;">
									<polygon style="fill:#FFFFFF;" points="1667.989,1655.482 1364.828,1664.067 1364.853,1632.301 1668.032,1624.157 
																			"/>
									<polygon style="fill:#FFFFFF;" points="1667.916,1707.68 1364.788,1717.002 1364.812,1685.242 1667.96,1676.363 									
										"/>
								</g>
							</g>
						</g>
						<g>
							<g>
								
									<linearGradient id="SVGID_00000090998789153017687440000006042602272189380754_" gradientUnits="userSpaceOnUse" x1="1321.595" y1="569.2209" x2="979.077" y2="4401.168">
									<stop  offset="0" style="stop-color:#FFC444"/>
									<stop  offset="0.9964" style="stop-color:#F36F56"/>
								</linearGradient>
								<polygon style="fill:url(#SVGID_00000090998789153017687440000006042602272189380754_);" points="1364.737,1784.036 
									1147.429,1791.388 1147.739,816.787 1365.475,819.076 								"/>
								<polygon style="opacity:0.5;fill:#FFFFFF;" points="1338.406,942.874 1179.063,942.106 1179.088,874.263 1338.454,875.523 
																	"/>
							</g>
							
								<linearGradient id="SVGID_00000004506861194095281930000015450179199428451224_" gradientUnits="userSpaceOnUse" x1="1040.1447" y1="1304.9838" x2="1147.7386" y2="1304.9838">
								<stop  offset="0" style="stop-color:#FFC444"/>
								<stop  offset="0.9964" style="stop-color:#F36F56"/>
							</linearGradient>
							<polygon style="fill:url(#SVGID_00000004506861194095281930000015450179199428451224_);" points="1147.739,816.787 
								1040.145,873.085 1040.145,1793.181 1147.429,1791.388 							"/>
						</g>
					</g>
					<g style="clip-path:url(#SVGID_00000011716046167662808650000017842089860294346149_);">
						<g>
							
								<linearGradient id="SVGID_00000095296777516974632600000009542880052348566923_" gradientUnits="userSpaceOnUse" x1="2766.9651" y1="888.0098" x2="2625.115" y2="2191.2629">
								<stop  offset="0.0036" style="stop-color:#E38DDD"/>
								<stop  offset="1" style="stop-color:#9571F6"/>
							</linearGradient>
							<polygon style="fill:url(#SVGID_00000095296777516974632600000009542880052348566923_);" points="2816.944,1734.905 
								2627.801,1741.304 2630.862,832.382 2820.329,834.374 							"/>
							<polygon style="fill:#FFFFFF;" points="2757.154,1565.168 2686.192,1566.97 2688.149,1005.891 2759.186,1006.037 							"/>
						</g>
						
							<linearGradient id="SVGID_00000094584490461990319820000004227500065629509784_" gradientUnits="userSpaceOnUse" x1="2522.8528" y1="1289.7621" x2="2630.4468" y2="1289.7621">
							<stop  offset="0.0036" style="stop-color:#E38DDD"/>
							<stop  offset="1" style="stop-color:#9571F6"/>
						</linearGradient>
						<polygon style="fill:url(#SVGID_00000094584490461990319820000004227500065629509784_);" points="2630.447,832.382 
							2522.853,886.021 2522.853,1747.142 2630.137,1741.304 						"/>
					</g>
					<g style="clip-path:url(#SVGID_00000011716046167662808650000017842089860294346149_);">
						
							<linearGradient id="SVGID_00000090291716036190099880000001819806569971284892_" gradientUnits="userSpaceOnUse" x1="2527.5544" y1="312.8476" x2="2446.75" y2="2514.7239">
							<stop  offset="0" style="stop-color:#40447E"/>
							<stop  offset="0.9964" style="stop-color:#3C3B6B"/>
						</linearGradient>
						<polygon style="fill:url(#SVGID_00000090291716036190099880000001819806569971284892_);" points="2627.801,1741.304 
							2351.401,1750.656 2353.819,886.936 2630.671,889.081 						"/>
						<g>
							<g style="opacity:0.9;">
								<polygon style="fill:#FFFFFF;" points="2630.346,985.772 2353.544,984.933 2353.63,954.524 2630.447,955.768 								"/>
								<polygon style="fill:#FFFFFF;" points="2630.177,1035.77 2353.403,1035.606 2353.488,1005.204 2630.278,1005.772 								
									"/>
							</g>
							<g style="opacity:0.9;">
								<polygon style="fill:#FFFFFF;" points="2628.181,1628.291 2351.722,1636.12 2351.807,1605.792 2628.282,1598.366 								
									"/>
								<polygon style="fill:#FFFFFF;" points="2628.013,1678.156 2351.581,1686.657 2351.665,1656.336 2628.114,1648.238 								
									"/>
							</g>
						</g>
					</g>
					<g style="clip-path:url(#SVGID_00000011716046167662808650000017842089860294346149_);">
						<g>
							
								<linearGradient id="SVGID_00000157298060719028880770000003245209188994121894_" gradientUnits="userSpaceOnUse" x1="2315.8789" y1="591.5366" x2="1989.2452" y2="4245.7773">
								<stop  offset="0" style="stop-color:#AA80F9"/>
								<stop  offset="0.9964" style="stop-color:#6165D7"/>
							</linearGradient>
							<polygon style="fill:url(#SVGID_00000157298060719028880770000003245209188994121894_);" points="2351.401,1750.656 
								2153.444,1757.353 2155.667,827.385 2353.98,829.47 							"/>
							<polygon style="opacity:0.5;fill:#FFFFFF;" points="2329.071,947.648 2183.937,946.948 2184.096,882.213 2329.247,883.361 
															"/>
						</g>
						
							<linearGradient id="SVGID_00000017485635659573780110000009549599421830590652_" gradientUnits="userSpaceOnUse" x1="2048.2004" y1="1292.1665" x2="2155.7944" y2="1292.1665">
							<stop  offset="0" style="stop-color:#AA80F9"/>
							<stop  offset="0.9964" style="stop-color:#6165D7"/>
						</linearGradient>
						<polygon style="fill:url(#SVGID_00000017485635659573780110000009549599421830590652_);" points="2155.794,827.026 
							2048.2,880.665 2048.2,1757.307 2155.485,1755.599 						"/>
					</g>
					<polygon style="clip-path:url(#SVGID_00000011716046167662808650000017842089860294346149_);fill:#D8DEE8;" points="
						2900.753,1811.147 1107.105,1878.807 1107.125,1785.974 2901.086,1725.862 					"/>
					<g style="clip-path:url(#SVGID_00000011716046167662808650000017842089860294346149_);">
						<g>
							
								<linearGradient id="SVGID_00000142894606157385590970000001929023943986809221_" gradientUnits="userSpaceOnUse" x1="2788.5566" y1="1607.3074" x2="2634.6951" y2="3216.1692">
								<stop  offset="0" style="stop-color:#FFC444"/>
								<stop  offset="0.9964" style="stop-color:#F36F56"/>
							</linearGradient>
							<polygon style="fill:url(#SVGID_00000142894606157385590970000001929023943986809221_);" points="2813.067,2766.564 
								2624.293,2782.537 2627.342,1877.516 2816.437,1869.862 							"/>
							<g>
								<g style="opacity:0.9;">
									<polygon style="fill:#FFFFFF;" points="2816.165,1942.246 2627.096,1950.573 2627.196,1920.689 2816.276,1912.637 
																			"/>
									<polygon style="fill:#FFFFFF;" points="2815.979,1991.587 2626.928,2000.373 2627.029,1970.494 2816.091,1961.984 
																			"/>
								</g>
								<g style="opacity:0.9;">
									<polygon style="fill:#FFFFFF;" points="2813.448,2664.907 2624.639,2679.939 2624.739,2650.145 2813.56,2635.386 									
										"/>
									<polygon style="fill:#FFFFFF;" points="2813.264,2714.101 2624.471,2729.589 2624.572,2699.801 2813.375,2684.586 
																			"/>
								</g>
							</g>
						</g>
						
							<linearGradient id="SVGID_00000077322241587253836250000006687333295487011721_" gradientUnits="userSpaceOnUse" x1="2479.8918" y1="2363.1494" x2="2627.1516" y2="2363.1494">
							<stop  offset="0" style="stop-color:#FFC444"/>
							<stop  offset="0.9964" style="stop-color:#F36F56"/>
						</linearGradient>
						<polygon style="fill:url(#SVGID_00000077322241587253836250000006687333295487011721_);" points="2627.152,1877.76 
							2479.892,1886.222 2486.214,2848.538 2625.947,2847.217 						"/>
					</g>
					<g style="clip-path:url(#SVGID_00000011716046167662808650000017842089860294346149_);">
						<g>
							
								<linearGradient id="SVGID_00000182489227034928856350000008062374337720650628_" gradientUnits="userSpaceOnUse" x1="2524.7576" y1="1350.9934" x2="2442.9973" y2="3578.9141">
								<stop  offset="0" style="stop-color:#AA80F9"/>
								<stop  offset="0.9964" style="stop-color:#6165D7"/>
							</linearGradient>
							<polygon style="fill:url(#SVGID_00000182489227034928856350000008062374337720650628_);" points="2624.293,2782.537 
								2348.448,2805.879 2350.855,1945.916 2627.152,1933.971 							"/>
						</g>
						<polygon style="fill:#FFFFFF;" points="2542.769,2646.582 2432.405,2655.155 2434.085,2089.727 2544.568,2084.164 						"/>
					</g>
					<g style="clip-path:url(#SVGID_00000011716046167662808650000017842089860294346149_);">
						<g>
							
								<linearGradient id="SVGID_00000102545418986001016060000015788373204333313471_" gradientUnits="userSpaceOnUse" x1="2313.5234" y1="1649.3397" x2="1984.8263" y2="5326.666">
								<stop  offset="0" style="stop-color:#FF9085"/>
								<stop  offset="1" style="stop-color:#FB6FBB"/>
							</linearGradient>
							<polygon style="fill:url(#SVGID_00000102545418986001016060000015788373204333313471_);" points="2348.448,2805.879 
								2150.897,2822.595 2153.111,1896.711 2351.015,1888.7 							"/>
							<polygon style="opacity:0.5;fill:#FFFFFF;" points="2326.157,2007.614 2181.323,2014.297 2181.48,1949.845 
								2326.333,1943.607 							"/>
							<polygon style="opacity:0.5;fill:#FFFFFF;" points="2324.096,2757.588 2179.473,2769.476 2179.63,2705.225 
								2324.271,2693.779 							"/>
						</g>
						
							<linearGradient id="SVGID_00000046322496286307602380000011820731181467519107_" gradientUnits="userSpaceOnUse" x1="2005.8024" y1="2382.2141" x2="2153.0623" y2="2382.2141">
							<stop  offset="0" style="stop-color:#FF9085"/>
							<stop  offset="1" style="stop-color:#FB6FBB"/>
						</linearGradient>
						<polygon style="fill:url(#SVGID_00000046322496286307602380000011820731181467519107_);" points="2153.062,1896.825 
							2005.802,1905.286 2012.124,2867.603 2151.857,2866.282 						"/>
					</g>
					<g style="clip-path:url(#SVGID_00000011716046167662808650000017842089860294346149_);">
						
							<linearGradient id="SVGID_00000095339297116809932040000006586115372123868319_" gradientUnits="userSpaceOnUse" x1="2036.7625" y1="1902.1368" x2="1977.5745" y2="3071.9807">
							<stop  offset="0" style="stop-color:#AA80F9"/>
							<stop  offset="0.9964" style="stop-color:#6165D7"/>
						</linearGradient>
						<polygon style="fill:url(#SVGID_00000095339297116809932040000006586115372123868319_);" points="2150.897,2822.595 
							1873.05,2846.106 1874.717,1928.635 2153.062,1917.098 						"/>
						<polygon style="fill:#FFFFFF;" points="1932.641,2841.033 1871.788,2846.106 1872.073,1928.38 1932.998,1926.219 						"/>
					</g>
					<g style="clip-path:url(#SVGID_00000011716046167662808650000017842089860294346149_);">
						<g>
							
								<linearGradient id="SVGID_00000174585644128576635430000000445196624436866960_" gradientUnits="userSpaceOnUse" x1="1841.9395" y1="1632.5287" x2="1680.723" y2="3318.2964">
								<stop  offset="0" style="stop-color:#FFC444"/>
								<stop  offset="0.9964" style="stop-color:#F36F56"/>
							</linearGradient>
							<polygon style="fill:url(#SVGID_00000174585644128576635430000000445196624436866960_);" points="1873.05,2846.106 
								1666.31,2863.6 1667.626,1916.362 1874.754,1907.978 							"/>
							<g>
								<g style="opacity:0.9;">
									<polygon style="fill:#FFFFFF;" points="1874.616,1983.713 1667.52,1992.833 1667.563,1961.552 1874.673,1952.733 									
										"/>
									<polygon style="fill:#FFFFFF;" points="1874.523,2035.337 1667.448,2044.959 1667.491,2013.685 1874.579,2004.364 
																			"/>
								</g>
								<g style="opacity:0.9;">
									<polygon style="fill:#FFFFFF;" points="1873.243,2739.761 1666.459,2756.225 1666.502,2725.042 1873.299,2708.878 
																			"/>
									<polygon style="fill:#FFFFFF;" points="1873.149,2791.225 1666.387,2808.186 1666.43,2777.011 1873.205,2760.348 									
										"/>
								</g>
							</g>
						</g>
						
							<linearGradient id="SVGID_00000081611447978123234620000003163452724778095540_" gradientUnits="userSpaceOnUse" x1="1517.2671" y1="2401.9448" x2="1668.6343" y2="2401.9448">
							<stop  offset="0" style="stop-color:#FFC444"/>
							<stop  offset="0.9964" style="stop-color:#F36F56"/>
						</linearGradient>
						<polygon style="fill:url(#SVGID_00000081611447978123234620000003163452724778095540_);" points="1668.634,1916.556 
							1517.267,1933.971 1517.267,2887.334 1667.521,2886.012 						"/>
					</g>
					<g style="clip-path:url(#SVGID_00000011716046167662808650000017842089860294346149_);">
						<g>
							
								<linearGradient id="SVGID_00000160878773038623995770000007116689726972704191_" gradientUnits="userSpaceOnUse" x1="1554.4203" y1="1364.019" x2="1468.6985" y2="3699.8901">
								<stop  offset="0" style="stop-color:#40447E"/>
								<stop  offset="0.9964" style="stop-color:#3C3B6B"/>
							</linearGradient>
							<polygon style="fill:url(#SVGID_00000160878773038623995770000007116689726972704191_);" points="1666.31,2863.6 
								1363.891,2889.19 1364.58,1988.553 1667.544,1975.456 							"/>
						</g>
						<polygon style="fill:#FFFFFF;" points="1576.651,2721.628 1455.651,2731.027 1456.217,2138.968 1577.36,2132.868 						"/>
					</g>
					<g style="clip-path:url(#SVGID_00000011716046167662808650000017842089860294346149_);">
						<g>
							
								<linearGradient id="SVGID_00000049913555119437477680000000621981535614901904_" gradientUnits="userSpaceOnUse" x1="1321.433" y1="1677.207" x2="976.6514" y2="5534.4775">
								<stop  offset="0.0036" style="stop-color:#E38DDD"/>
								<stop  offset="1" style="stop-color:#9571F6"/>
							</linearGradient>
							<polygon style="fill:url(#SVGID_00000049913555119437477680000000621981535614901904_);" points="1363.891,2889.19 
								1147.075,2907.537 1147.383,1937.42 1364.626,1928.626 							"/>
							<polygon style="opacity:0.5;fill:#FFFFFF;" points="1337.618,2053.23 1178.635,2060.567 1178.661,1993.036 
								1337.666,1986.188 							"/>
							<polygon style="opacity:0.5;fill:#FFFFFF;" points="1337.061,2838.719 1178.333,2851.767 1178.359,2784.456 
								1337.108,2771.894 							"/>
						</g>
						
							<linearGradient id="SVGID_00000083798288289555791850000009084397993979256463_" gradientUnits="userSpaceOnUse" x1="1065.2563" y1="2423.4692" x2="1148.2799" y2="2423.4692">
							<stop  offset="0.0036" style="stop-color:#E38DDD"/>
							<stop  offset="1" style="stop-color:#9571F6"/>
						</linearGradient>
						<polygon style="fill:url(#SVGID_00000083798288289555791850000009084397993979256463_);" points="1148.28,1938.08 
							1065.256,1946.541 1065.256,2908.858 1147.075,2907.537 						"/>
					</g>
				</g>
			</g>
			<g>
				<g>
					
						<linearGradient id="SVGID_00000114038816660566795190000008072954210041121469_" gradientUnits="userSpaceOnUse" x1="-2986.1987" y1="7800.7759" x2="-2319.3303" y2="7910.6572" gradientTransform="matrix(-0.9733 -0.2297 0.2297 -0.9733 -1947.3292 8426.6738)">
						<stop  offset="0" style="stop-color:#FFC444"/>
						<stop  offset="0.9964" style="stop-color:#F36F56"/>
					</linearGradient>
					<path style="fill:url(#SVGID_00000114038816660566795190000008072954210041121469_);" d="M2401.606,1866.214l111.918,38.328
						l201.838-879.772c0,0-68.247-41.754-107.07-55.689L2401.606,1866.214z"/>
					<g>
						
							<linearGradient id="SVGID_00000103244982842555622180000008338335279936427927_" gradientUnits="userSpaceOnUse" x1="-2564.2556" y1="7855.9141" x2="-1322.1838" y2="7463.1221" gradientTransform="matrix(-0.9733 -0.2297 0.2297 -0.9733 -1947.3292 8426.6738)">
							<stop  offset="0" style="stop-color:#FFC444"/>
							<stop  offset="0.9964" style="stop-color:#F36F56"/>
						</linearGradient>
						<path style="fill:url(#SVGID_00000103244982842555622180000008338335279936427927_);" d="M1783.047,1744.555l623.152,122.44
							l205.32-891.344c0.761-3.303-1.447-6.479-4.773-6.868l-623.923-73.071L1783.047,1744.555z"/>
						<path style="opacity:0.64;fill:#FFFFFF;" d="M2005.363,930.395l566.862,68.008l-191.161,828.932l-561.06-108.559
							L2005.363,930.395z M2563.207,1004.804L2010.39,938.13l-182.149,774.901l547.258,105.525L2563.207,1004.804z"/>
						<g style="opacity:0.3;">
							<path style="fill:#FFFFFF;" d="M2142.803,1029.648c13.23,88.403-36.167,110.607-32.555,212.76
								c7.35,207.847,218.739,273.408,220.653,459.207c0.364,35.31-6.856,83.997-41.178,142.495l116.477,22.886l205.32-891.344
								c0.761-3.303-1.447-6.479-4.773-6.868l-520.254-60.929C2115.068,942.684,2135.834,983.081,2142.803,1029.648z"/>
						</g>
					</g>
					
						<linearGradient id="SVGID_00000146458939921657526060000007152551407411686588_" gradientUnits="userSpaceOnUse" x1="-2194.085" y1="7068.1387" x2="-2789.7324" y2="7704.5835" gradientTransform="matrix(-0.9733 -0.2297 0.2297 -0.9733 -1947.3292 8426.6738)">
						<stop  offset="0" style="stop-color:#FFC444"/>
						<stop  offset="0.9964" style="stop-color:#F36F56"/>
					</linearGradient>
					<path style="fill:url(#SVGID_00000146458939921657526060000007152551407411686588_);" d="M1782.545,1746.464
						c-0.751-0.57-0.133-1.868,0.8-1.681l618.261,121.43c24.921,5.002,110.625,38.023,110.625,38.023
						c9.371,5.573-18.064,18.827-28.602,16.488l-629.81-122.594c-0.948-0.215-1.834-0.627-2.606-1.212l-4.051-3.069
						c-1.469-1.113-2.042-3.09-1.425-4.912l2.906-8.591l-42.7-22.687l-11.979-2.628c-0.117-0.026-0.226-0.076-0.32-0.147
						L1782.545,1746.464z"/>
					<polygon style="fill:#EFEFEF;" points="1793.964,1755.031 2403.468,1878.565 2482.952,1907.488 1845.737,1788.938 					"/>
				</g>
				<g>
					
						<linearGradient id="SVGID_00000090259680330960111390000007769257434106269102_" gradientUnits="userSpaceOnUse" x1="-3349.0703" y1="3096.6128" x2="-3179.8223" y2="3096.6128" gradientTransform="matrix(-1 0 0 1 -434.6348 0)">
						<stop  offset="0" style="stop-color:#40447E"/>
						<stop  offset="0.9964" style="stop-color:#3C3B6B"/>
					</linearGradient>
					<path style="fill:url(#SVGID_00000090259680330960111390000007769257434106269102_);" d="M2891.391,3062.314
						c19.643,19.821,27.603,41.097,20.468,53.565c-4.93,8.616-15.832,10.865-27.779,13.159c-18.861,3.619-38.521,2.643-78.95-8.772
						c-37.742-10.659-59.923-16.922-59.943-25.989c-0.019-8.486,19.387-15.078,36.419-20.865
						c24.076-8.18,45.207-10.493,59.706-11.099C2858.005,3062.314,2874.698,3062.314,2891.391,3062.314z"/>
					
						<linearGradient id="SVGID_00000168083480592665123880000014960344920799302797_" gradientUnits="userSpaceOnUse" x1="-2763.0901" y1="2805.6428" x2="-2651.1934" y2="2805.6428" gradientTransform="matrix(-1 0 0 1 -434.6348 0)">
						<stop  offset="0" style="stop-color:#40447E"/>
						<stop  offset="0.9964" style="stop-color:#3C3B6B"/>
					</linearGradient>
					<path style="fill:url(#SVGID_00000168083480592665123880000014960344920799302797_);" d="M2304.504,2740.871
						c8.845,3.824,20.189,10.563,23.212,21.695c4.774,17.576-14.014,35.723-44.058,64.025
						c-22.545,21.236-52.991,49.916-63.589,42.682c-6.49-4.43-2.655-20.364,0.915-35.195c4.298-17.854,13.798-45.478,37.325-75.758
						C2258.309,2758.321,2258.309,2758.321,2304.504,2740.871z"/>
					
						<linearGradient id="SVGID_00000031928577613524653440000010853186869269866421_" gradientUnits="userSpaceOnUse" x1="-3266.4509" y1="3088.4053" x2="-3205.0464" y2="3215.6006" gradientTransform="matrix(-1 0 0 1 -434.6348 0)">
						<stop  offset="0" style="stop-color:#311944"/>
						<stop  offset="1" style="stop-color:#A03976"/>
					</linearGradient>
					<path style="fill:url(#SVGID_00000031928577613524653440000010853186869269866421_);" d="M2848.295,3018.641l42.274,46.874
						c4.34,4.814,2.168,12.55-4.077,14.293c-9.257,2.583-22.165,4.68-34.012,1.326c-2.604-0.737-4.901-2.305-6.838-4.197
						l-42.187-41.2L2848.295,3018.641z"/>
					
						<linearGradient id="SVGID_00000148631928696013630790000017115428320260106918_" gradientUnits="userSpaceOnUse" x1="-2675.3589" y1="2584.9087" x2="-2769.2627" y2="3003.2058" gradientTransform="matrix(-1 0 0 1 -434.6348 0)">
						<stop  offset="0" style="stop-color:#311944"/>
						<stop  offset="1" style="stop-color:#A03976"/>
					</linearGradient>
					<path style="fill:url(#SVGID_00000148631928696013630790000017115428320260106918_);" d="M2281.082,2712.567l22.792,32.842
						c3.229,4.654,1.683,11.037-3.279,13.774c-3.276,1.806-7.188,3.723-11.273,5.202c-6.623,2.397-14.041,0.609-18.718-4.657
						l-24.721-27.831L2281.082,2712.567z"/>
					
						<linearGradient id="SVGID_00000085232089152058868510000001850649739360216504_" gradientUnits="userSpaceOnUse" x1="-2699.519" y1="2904.916" x2="-3133.3276" y2="2471.1077" gradientTransform="matrix(-1 0 0 1 -434.6348 0)">
						<stop  offset="0" style="stop-color:#AB316D"/>
						<stop  offset="1" style="stop-color:#792D3D"/>
					</linearGradient>
					<path style="fill:url(#SVGID_00000085232089152058868510000001850649739360216504_);" d="M2690.399,2024.667
						c-21.667,45.282-47.782,110.594-63.626,192.321c-6.664,34.372-37.838,207.449,29.17,416.016
						c62.364,194.113,177.231,317.674,238.346,374.963c-8.655,7.32-20.641,15.92-36.15,23.136
						c-24.83,11.552-47.531,14.373-62.058,14.962c-186.65-133.24-277.16-284.195-318.249-366.346
						c-138.621-277.162-103.845-549.257-43.25-664.335c19.898-37.788,42.373-58.251,67.832-67.356
						C2584.119,1918.812,2678.859,2012.925,2690.399,2024.667z"/>
					
						<linearGradient id="SVGID_00000105384552173140252500000001291316075164541056_" gradientUnits="userSpaceOnUse" x1="-2699.519" y1="2904.916" x2="-3133.3276" y2="2471.1077" gradientTransform="matrix(-1 0 0 1 -434.6348 0)">
						<stop  offset="0" style="stop-color:#AB316D"/>
						<stop  offset="1" style="stop-color:#792D3D"/>
					</linearGradient>
					<path style="opacity:0.3;fill:url(#SVGID_00000105384552173140252500000001291316075164541056_);" d="M2434.583,2015.383
						c19.898-37.788,42.373-58.251,67.832-67.356c81.705-29.216,176.444,64.897,187.984,76.64
						c-21.362,44.646-47.004,108.838-62.906,188.959c-57.08,13.419-136.829,45.252-175.689,120.49
						c-62.871,121.726,27.517,267.612,46.273,297.882c41.281,66.628,66.28,60.38,127.25,156.171
						c46.05,72.349,49.568,103.848,89.654,138.819c47.129,41.114,105.981,53.165,153.502,55.783
						c9.323,9.471,18.01,17.888,25.805,25.195c-8.655,7.32-20.641,15.92-36.15,23.136c-24.83,11.552-47.531,14.373-62.058,14.962
						c-186.65-133.24-277.16-284.195-318.249-366.346C2339.212,2402.556,2373.987,2130.461,2434.583,2015.383z"/>
					
						<linearGradient id="SVGID_00000158750535300517270430000005794958638210434996_" gradientUnits="userSpaceOnUse" x1="-2412.2473" y1="2617.6453" x2="-2846.0559" y2="2183.8364" gradientTransform="matrix(-1 0 0 1 -434.6348 0)">
						<stop  offset="0" style="stop-color:#AB316D"/>
						<stop  offset="1" style="stop-color:#792D3D"/>
					</linearGradient>
					<path style="fill:url(#SVGID_00000158750535300517270430000005794958638210434996_);" d="M2584.838,2014.544
						c-10.042,20.399-27.492,50.838-56.395,80.977c-73.262,76.396-141.763,69.168-219.376,132.094
						c-9.566,7.755-78.306,64.763-103.695,147.934c-48.87,160.092,93.145,317.962,108.87,334.959
						c-9.129,8.458-22.93,19.398-41.747,28.497c-17.313,8.37-33.12,12.404-44.827,14.46
						c-203.616-186.046-303.108-411.498-235.354-557.998c36.959-79.911,124.458-138.013,189.082-180.924
						c105.662-70.162,206.505-102.028,272.162-117.588C2497.319,1936.153,2541.079,1975.349,2584.838,2014.544z"/>
					
						<linearGradient id="SVGID_00000141413407361164114770000011103954385684234897_" gradientUnits="userSpaceOnUse" x1="-2981.4041" y1="1259.9156" x2="-3221.4451" y2="2000.2816" gradientTransform="matrix(-1 0 0 1 -434.6348 0)">
						<stop  offset="0" style="stop-color:#AA80F9"/>
						<stop  offset="0.9964" style="stop-color:#6165D7"/>
					</linearGradient>
					<path style="fill:url(#SVGID_00000141413407361164114770000011103954385684234897_);" d="M2463.373,1589.893
						c-3.066,90.03,17.806,136.718-11.427,210.195c-21.005,52.797-55.81,89.082-82.219,111.637
						c15.033,28.842,50.046,86.42,118.405,131.4c82.584,54.339,164.722,57.975,196.967,57.699
						c68.32-35.155,171.947-101.403,255.125-219.384c56.384-79.974,118.29-167.784,101.91-279.718
						c-20.809-142.201-152.576-218.166-189.936-239.707c-24.589-14.176-194.409-112.081-298.206-40.12
						C2470.526,1379.759,2465.665,1522.554,2463.373,1589.893z"/>
					
						<linearGradient id="SVGID_00000120528855156302751520000008131078771618195903_" gradientUnits="userSpaceOnUse" x1="-2198.0818" y1="1755.5405" x2="-2272.4487" y2="1681.1737" gradientTransform="matrix(-1 0 0 1 -434.6348 0)">
						<stop  offset="0" style="stop-color:#311944"/>
						<stop  offset="1" style="stop-color:#A03976"/>
					</linearGradient>
					<path style="fill:url(#SVGID_00000120528855156302751520000008131078771618195903_);" d="M1895.805,1692.08
						c-2.717-14.543-13.128-25.102-19.07-31.099c-6.897-6.96-8.308-5.863-12.809-11.558c-11.33-14.341-8.59-29.15-12.948-29.645
						c-3.788-0.432-10.44,10.234-9.986,21.264c0.505,12.33,9.515,16.005,7.817,22.84c-2.388,9.61-23.745,16.594-42.658,13.014
						c-21.93-4.152-32.63-21.831-41.211-17.352c-6.23,3.25-5.829,14.889-5.784,15.906c0.956,21.824,30.116,44.73,58.564,47.719
						c16.378,1.721,22.506-4.214,41.935,0.722c12.886,3.273,17.39,7.714,23.86,5.062
						C1894.108,1724.609,1898.404,1705.983,1895.805,1692.08z"/>
					
						<linearGradient id="SVGID_00000090286143232910435020000002290122895371292344_" gradientUnits="userSpaceOnUse" x1="-2664.3198" y1="1362.7191" x2="-2904.3618" y2="2103.0881" gradientTransform="matrix(-1 0 0 1 -434.6348 0)">
						<stop  offset="0" style="stop-color:#AA80F9"/>
						<stop  offset="0.9964" style="stop-color:#6165D7"/>
					</linearGradient>
					<path style="fill:url(#SVGID_00000090286143232910435020000002290122895371292344_);" d="M1892.673,1684.367
						c175.335,12.14,280.06-33.464,343.19-77.121c143.212-99.039,171.314-256.496,337.407-298.846
						c30.29-7.723,83.041-21.173,111.827,5.784c59.812,56.016-10.72,261.334-134.964,387.536
						c-27.434,27.868-126.29,125.35-289.432,147.359c-209.102,28.209-359.099-89.794-384.974-110.853
						c-8.199-9.236-10.697-22.169-6.437-33.51C1875.279,1688.773,1891.356,1684.679,1892.673,1684.367z"/>
					
						<linearGradient id="SVGID_00000101808141753526420610000013626600580945099447_" gradientUnits="userSpaceOnUse" x1="-2992.1016" y1="1256.4458" x2="-3232.1431" y2="1996.8138" gradientTransform="matrix(-1 0 0 1 -434.6348 0)">
						<stop  offset="0" style="stop-color:#AA80F9"/>
						<stop  offset="0.9964" style="stop-color:#6165D7"/>
					</linearGradient>
					<path style="opacity:0.3;fill:url(#SVGID_00000101808141753526420610000013626600580945099447_);" d="M2760.291,1960.077
						c49.373-46.767,26-75.748,86.761-169.667c61.896-95.677,106.444-97.451,134.962-161.955
						c14.752-33.368,23.855-81.291,7.593-150.134c25.013,33.698,45.376,74.551,52.524,123.402
						c16.38,111.933-45.526,199.743-101.91,279.718c-83.178,117.981-186.805,184.229-255.125,219.384
						c-32.245,0.277-114.382-3.359-196.967-57.699c-30.639-20.161-54.536-42.843-72.98-64.345
						c25.218,13.888,54.721,26.021,88.711,33.354C2520.331,2015.687,2669.806,2045.785,2760.291,1960.077z"/>
					
						<linearGradient id="SVGID_00000021807058287016254440000015600349409284077957_" gradientUnits="userSpaceOnUse" x1="-3295.1067" y1="1446.6219" x2="-3102.3027" y2="1128.4952" gradientTransform="matrix(-1 0 0 1 -434.6348 0)">
						<stop  offset="0" style="stop-color:#311944"/>
						<stop  offset="1" style="stop-color:#A03976"/>
					</linearGradient>
					<path style="fill:url(#SVGID_00000021807058287016254440000015600349409284077957_);" d="M2805.573,1264.629l14.284,48.256
						c4.57,15.438,13.837,29.068,26.516,38.994l37.903,29.677c0,0-115.6-19.407-170.885-73.275l33.76-10.647
						c3.549-1.119,5.963-4.411,5.963-8.133v-35.477L2805.573,1264.629z"/>
					<g>
						<g>
							
								<linearGradient id="SVGID_00000155864325344573375010000015415390985123067533_" gradientUnits="userSpaceOnUse" x1="-3308.7639" y1="1438.3439" x2="-3115.96" y2="1120.2173" gradientTransform="matrix(-1 0 0 1 -434.6348 0)">
								<stop  offset="0" style="stop-color:#311944"/>
								<stop  offset="1" style="stop-color:#A03976"/>
							</linearGradient>
							<path style="fill:url(#SVGID_00000155864325344573375010000015415390985123067533_);" d="M2764.018,1289.012
								c-5.503-1.221-45.409,5.311-56.751-13.871c-15.4-26.038-0.076-67.643,1.47-74.072c6.477-26.909,8.886-30.99,13.881-36.684
								l7.063-7.468c0,0,0.437-0.327,0.904-0.648c4.909-3.376,23.248-8.866,27.206-9.065c12.645-0.635,38.378,44.711,53.114,114.593
								c1.196,2.493,2.381,5.012,3.555,7.56C2817.51,1275.979,2764.378,1291.554,2764.018,1289.012z"/>
							<path style="fill:#26264F;" d="M2699.664,1143.954c5.762,21.331,21.9,41.449,28.001,43.746
								c0.787,0.297,5.297,2.247,9.984,6.385c0.639,0.562,1.254,1.258,1.89,2.199c8.263,12.206-8.907,33.742-3.173,38.666
								c4.159,3.57,17.141-6.149,19.875-2.836c2.575,3.117-7.546,13.692-4.562,17.452c2.252,2.839,8.905-2.081,14.905,1.589
								c2.99,1.826,2.821,3.951,7.295,10.782c2.53,3.862,5.724,7.975,7.931,10.148c10.72,10.568,32.837,9.576,35.521,3.489
								c0.746-1.696-0.528-2.615-0.635-7.611c0,0-0.1-4.631,1.586-10.465c2.407-8.335,11.471-16.251,19.98-26.641
								c15.755-19.238,17.864-32.62,18.376-37.087c0.181-1.591,0.244-2.772,0.288-3.623c0.875-17.088-5.263-40.208-16.128-52.536
								c-18.199-20.652-41.919-2.221-70.092-19.981c-32.503-20.49-27.386-61.705-42.181-62.163
								C2712.215,1054.961,2689.009,1104.513,2699.664,1143.954z"/>
							
								<linearGradient id="SVGID_00000080167911037590759790000010192039168295103925_" gradientUnits="userSpaceOnUse" x1="-3305.2722" y1="1440.4606" x2="-3112.469" y2="1122.3356" gradientTransform="matrix(-1 0 0 1 -434.6348 0)">
								<stop  offset="0" style="stop-color:#311944"/>
								<stop  offset="1" style="stop-color:#A03976"/>
							</linearGradient>
							<path style="fill:url(#SVGID_00000080167911037590759790000010192039168295103925_);" d="M2742.703,1227.886
								c3.317-8.585,14.312-4.281,16.844,5.008c2.535,9.287-3.9,21.362-13.134,21.856
								C2737.177,1255.244,2738.241,1239.44,2742.703,1227.886z"/>
						</g>
					</g>
				</g>
			</g>
		</g>
		<g>
			
				<linearGradient id="SVGID_00000162333883119979713870000014481781031623905721_" gradientUnits="userSpaceOnUse" x1="648.1985" y1="2740.344" x2="1931.3167" y2="2740.344">
				<stop  offset="0" style="stop-color:#FFC444"/>
				<stop  offset="0.9964" style="stop-color:#F36F56"/>
			</linearGradient>
			<polygon style="fill:url(#SVGID_00000162333883119979713870000014481781031623905721_);" points="648.198,2680.169 
				1244.395,2654.247 1931.317,2678.317 1253.653,2826.441 			"/>
			<g>
				
					<linearGradient id="SVGID_00000011736248068692919140000004738073866596417939_" gradientUnits="userSpaceOnUse" x1="790.2743" y1="3249.0522" x2="894.8698" y2="3011.1484">
					<stop  offset="0" style="stop-color:#AA80F9"/>
					<stop  offset="0.9964" style="stop-color:#6165D7"/>
				</linearGradient>
				<path style="fill:url(#SVGID_00000011736248068692919140000004738073866596417939_);" d="M1128.563,3254.683l-482.93-129.975
					c-48.636-13.09-86.423-61.279-86.423-108.01v-0.514c0-46.732,37.787-78.085,86.423-69.506l517.966,84.762L1128.563,3254.683z"/>
				<g>
					
						<linearGradient id="SVGID_00000015338661266748176120000014967034924836542887_" gradientUnits="userSpaceOnUse" x1="1062.7767" y1="3112.5903" x2="1932.1442" y2="3112.5903">
						<stop  offset="0" style="stop-color:#F4F7FA"/>
						<stop  offset="0.9964" style="stop-color:#D8DEE8"/>
					</linearGradient>
					<path style="fill:url(#SVGID_00000015338661266748176120000014967034924836542887_);" d="M1932.144,3157.074l-780.312,87.142
						c-48.874,5.458-89.055-28.624-89.055-76.202v-32.276c0-47.578,40.181-89.345,89.055-93.236l780.312-62.111
						C1897.615,3044.671,1889.649,3104.808,1932.144,3157.074z"/>
					
						<linearGradient id="SVGID_00000071558007484706036500000002386890203254089860_" gradientUnits="userSpaceOnUse" x1="1041.7971" y1="3113.0017" x2="1947.4336" y2="3113.0017">
						<stop  offset="0" style="stop-color:#AA80F9"/>
						<stop  offset="0.9964" style="stop-color:#6165D7"/>
					</linearGradient>
					<path style="fill:url(#SVGID_00000071558007484706036500000002386890203254089860_);" d="M1938.935,3165.727l-780.565,88.505
						c-63.748,7.228-116.573-37.422-116.573-99.666v-0.684c0-62.244,52.825-117.004,116.573-121.976l780.565-60.879
						c4.697-0.366,8.498,3.544,8.498,8.734c0,5.19-3.802,9.707-8.498,10.089l-780.565,63.55
						c-51.284,4.175-93.628,48.295-93.628,98.288v0.682c0,49.993,42.344,86.009,93.628,80.369l780.565-85.835
						c4.697-0.516,8.498,3.273,8.498,8.462S1943.632,3165.195,1938.935,3165.727z"/>
				</g>
			</g>
			<g>
				
					<linearGradient id="SVGID_00000058550041059426635780000016068122642190143636_" gradientUnits="userSpaceOnUse" x1="942.1149" y1="2607.5706" x2="758.7435" y2="3225.2444">
					<stop  offset="0" style="stop-color:#FFC444"/>
					<stop  offset="0.9964" style="stop-color:#F36F56"/>
				</linearGradient>
				<path style="fill:url(#SVGID_00000058550041059426635780000016068122642190143636_);" d="M1148.852,3031.963l-503.219-85.286
					c-48.636-8.579-86.423-72.33-86.423-142.499v-0.771c0-70.168,37.787-125.85,86.423-124.044l533.815,19.829L1148.852,3031.963z"
					/>
				<g>
					
						<linearGradient id="SVGID_00000113333504506368709650000011412122858177506187_" gradientUnits="userSpaceOnUse" x1="1062.7767" y1="2852.7336" x2="1932.1442" y2="2852.7336">
						<stop  offset="0" style="stop-color:#F4F7FA"/>
						<stop  offset="0.9964" style="stop-color:#D8DEE8"/>
					</linearGradient>
					<path style="fill:url(#SVGID_00000113333504506368709650000011412122858177506187_);" d="M1932.144,2957.408l-736.58,55.557
						c-72.645,5.479-132.787-47.897-132.787-119.335v-48.463c0-71.438,60.143-130.99,132.787-132.971l736.58-20.08
						C1897.504,2788.436,1889.761,2878.63,1932.144,2957.408z"/>
					
						<linearGradient id="SVGID_00000024682561546767428620000009385511342477858439_" gradientUnits="userSpaceOnUse" x1="1041.7971" y1="2855.415" x2="1947.4336" y2="2855.415">
						<stop  offset="0" style="stop-color:#FFC444"/>
						<stop  offset="0.9964" style="stop-color:#F36F56"/>
					</linearGradient>
					<path style="fill:url(#SVGID_00000024682561546767428620000009385511342477858439_);" d="M1938.935,2971.027l-780.565,60.879
						c-63.748,4.972-116.573-66.943-116.573-160.404v-1.027c0-93.461,52.825-170.809,116.573-172.394l780.565-19.4
						c4.697-0.116,8.498,6.106,8.498,13.899c0,7.792-3.802,14.224-8.498,14.365l-780.565,23.41
						c-51.284,1.538-93.628,63.878-93.628,138.942v1.023c0,75.064,42.344,133.049,93.628,129.313l780.565-56.87
						c4.697-0.342,8.498,5.698,8.498,13.49C1947.434,2964.047,1943.632,2970.661,1938.935,2971.027z"/>
				</g>
			</g>
			<path style="opacity:0.5;fill:#FFFFFF;" d="M992.805,2961.642l-107.566-18.798c-25.117-68.557-23.229-131.535,0-206.805
				l107.566,7.647C970.758,2822.893,974.096,2894.638,992.805,2961.642z"/>
		</g>
	</g>
</g>
</svg>
